<?xml version="1.0" encoding="UTF-8"?>
<svg xmlns="http://www.w3.org/2000/svg" xmlns:xlink="http://www.w3.org/1999/xlink" width="201pt" height="201pt" viewBox="0 0 201 201" version="1.1">
<g id="surface1">
<path style=" stroke:none;fill-rule:nonzero;fill:rgb(13.299561%,12.199402%,12.199402%);fill-opacity:1;" d="M 151.960938 137.949219 L 141.929688 136.765625 C 141.929688 137.949219 141.863281 139 141.738281 139.917969 C 141.609375 140.707031 141.167969 142.347656 140.410156 144.84375 L 150.070313 148 L 148.363281 152.921875 L 146.28125 157.652344 L 137.382813 152.527344 C 135.992188 155.285156 134.542969 157.519531 133.027344 159.226563 L 140.789063 166.125 L 137.382813 170.0625 L 133.597656 173.605469 L 127.347656 165.335938 C 126.464844 166.125 125.582031 166.777344 124.699219 167.300781 C 123.941406 167.957031 122.679688 168.8125 120.910156 169.863281 L 125.453125 179.121094 L 120.910156 181.488281 L 116.179688 183.261719 L 113.339844 173.019531 C 112.578125 173.277344 111.320313 173.605469 109.550781 174 C 107.910156 174.394531 106.648438 174.59375 105.765625 174.59375 L 106.519531 185.230469 L 101.597656 185.425781 L 96.488281 185.230469 L 97.621094 174.59375 C 96.359375 174.59375 94.972656 174.394531 93.457031 174 C 91.941406 173.605469 90.808594 173.34375 90.050781 173.210938 L 86.832031 183.261719 L 82.289063 181.488281 L 77.550781 179.121094 L 82.476563 169.863281 C 81.46875 169.335938 80.457031 168.746094 79.449219 168.089844 C 78.5625 167.433594 77.429688 166.519531 76.039063 165.335938 L 69.410156 173.410156 L 65.816406 170.0625 L 62.40625 166.125 L 70.359375 159.425781 C 68.46875 156.925781 67.015625 154.695313 66.007813 152.722656 L 56.917969 157.652344 L 54.835938 152.921875 L 53.128906 148 L 62.785156 145.039063 C 62.40625 143.859375 62.027344 142.476563 61.648438 140.902344 C 61.398438 139.195313 61.269531 137.882813 61.269531 136.960938 L 51.238281 137.949219 L 50.859375 132.628906 L 51.238281 127.507813 L 61.269531 128.488281 C 61.269531 127.308594 61.335938 126.390625 61.460938 125.734375 C 61.585938 124.945313 62.027344 123.238281 62.785156 120.609375 L 53.128906 117.457031 L 54.835938 112.53125 L 56.917969 107.804688 L 65.816406 112.925781 C 67.203125 110.296875 68.65625 108 70.167969 106.03125 L 62.40625 99.332031 L 65.816406 95.390625 L 67.140625 94.011719 L 78.5 118.441406 C 75.847656 122.644531 74.527344 127.375 74.527344 132.628906 C 74.527344 139.855469 76.730469 146.09375 81.148438 151.347656 C 85.570313 156.597656 91.1875 159.6875 98 160.605469 L 101.597656 167.894531 L 105.007813 160.40625 C 111.699219 159.621094 117.3125 156.597656 121.859375 151.347656 C 126.402344 146.09375 128.671875 139.855469 128.671875 132.628906 C 128.671875 127.636719 127.347656 122.777344 124.699219 118.046875 L 136.058594 94.011719 L 137.382813 95.390625 L 140.789063 99.332031 L 132.839844 106.03125 C 134.730469 108.523438 136.183594 110.757813 137.191406 112.730469 L 146.28125 107.804688 L 148.363281 112.53125 L 150.070313 117.457031 L 140.410156 120.410156 C 140.789063 121.597656 141.105469 123.039063 141.359375 124.746094 C 141.738281 126.324219 141.929688 127.574219 141.929688 128.488281 L 151.960938 127.507813 L 152.339844 132.628906 L 151.960938 137.949219 "/>
<path style=" stroke:none;fill-rule:nonzero;fill:rgb(13.299561%,12.199402%,12.199402%);fill-opacity:1;" d="M 50.742188 48.757813 L 70.304688 48.777344 L 101.214844 117.167969 L 122.617188 68.769531 C 122.617188 68.769531 103.183594 68.769531 90.503906 68.769531 C 90.5 68.769531 81.601563 48.757813 81.621094 48.757813 C 111.304688 48.757813 151.6875 48.757813 151.6875 48.757813 L 101.214844 162.886719 L 50.742188 48.757813 "/>
<path style=" stroke:none;fill-rule:nonzero;fill:rgb(13.299561%,12.199402%,12.199402%);fill-opacity:1;" d="M 131.011719 24.804688 C 130.621094 29.285156 127.894531 31.425781 127.507813 33.375 C 126.339844 34.738281 122.246094 36.878906 120.886719 36.683594 C 120.300781 36.878906 121.46875 38.632813 120.886719 39.800781 C 118.160156 42.917969 102.96875 44.085938 99.65625 42.527344 C 68.300781 26.945313 69.273438 38.4375 67.71875 40.386719 C 67.71875 40.386719 49.800781 40.386719 48.632813 40.386719 C 48.4375 35.320313 49.992188 26.167969 55.449219 21.882813 C 58.5625 18.960938 67.328125 16.429688 73.363281 16.429688 C 80.960938 17.015625 113.289063 23.636719 122.246094 20.519531 C 132.765625 17.597656 136.660156 16.039063 141.726563 17.210938 C 140.945313 19.15625 133.15625 20.519531 131.011719 24.804688 "/>
</g>
</svg>
